<mxfile host="app.diagrams.net" modified="2024-08-20T12:00:00.000Z" agent="5.0 (Windows NT 10.0; Win64; x64) AppleWebKit/537.36 (KHTML, like Gecko) Chrome/123.0.0.0 Safari/537.36" etag="ABCDEFG12345" version="24.4.0" type="device">
  <diagram name="Shiksha AI Architecture" id="L-M_N0pQR-sT1uVwXyZk">
    <mxGraphModel dx="1434" dy="746" grid="1" gridSize="10" guides="1" tooltips="1" connect="1" arrows="1" fold="1" page="1" pageScale="1" pageWidth="1100" pageHeight="850" math="0" shadow="0">
      <root>
        <mxCell id="0" />
        <mxCell id="1" parent="0" />
        <mxCell id="user" value="Teacher&lt;br&gt;(End User)" style="shape=actor;whiteSpace=wrap;html=1;fontFamily=Inter;fontSize=14;" vertex="1" parent="1">
          <mxGeometry x="80" y="380" width="80" height="100" as="geometry" />
        </mxCell>
        <mxCell id="frontend-box" value="Frontend (User's Browser)" style="rounded=1;whiteSpace=wrap;html=1;fillColor=#dae8fc;strokeColor=#6c8ebf;fontFamily=Inter;fontSize=16;fontStyle=1;verticalAlign=top;spacingTop=10;" vertex="1" parent="1">
          <mxGeometry x="240" y="320" width="220" height="220" as="geometry" />
        </mxCell>
        <mxCell id="nextjs-app" value="&lt;b&gt;Next.js / React App&lt;/b&gt;&lt;br&gt;&lt;div style=&quot;text-align: left; font-size: 12px; margin-top: 5px;&quot;&gt;- UI Components (ShadCN)&lt;br&gt;- State Management&lt;br&gt;- User Interaction&lt;/div&gt;" style="rounded=1;whiteSpace=wrap;html=1;fillColor=#ffffff;strokeColor=#000000;align=center;verticalAlign=middle;fontFamily=Inter;fontSize=14;" vertex="1" parent="frontend-box">
          <mxGeometry x="20" y="50" width="180" height="150" as="geometry" />
        </mxCell>
        <mxCell id="backend-box" value="Backend Services" style="rounded=1;whiteSpace=wrap;html=1;fillColor=#e1d5e7;strokeColor=#9673a6;fontFamily=Inter;fontSize=16;fontStyle=1;verticalAlign=top;spacingTop=10;" vertex="1" parent="1">
          <mxGeometry x="540" y="100" width="480" height="560" as="geometry" />
        </mxCell>
        <mxCell id="firebase-box" value="Firebase Platform" style="rounded=1;whiteSpace=wrap;html=1;fillColor=#fff2cc;strokeColor=#d6b656;fontFamily=Inter;fontSize=14;fontStyle=1;verticalAlign=top;spacingTop=10;" vertex="1" parent="backend-box">
          <mxGeometry x="20" y="50" width="440" height="200" as="geometry" />
        </mxCell>
        <mxCell id="firebase-auth" value="&lt;b&gt;Authentication&lt;/b&gt;&lt;br&gt;&lt;div style=&quot;font-size: 11px;&quot;&gt;User Login &amp;amp; Signup&lt;/div&gt;" style="rounded=1;whiteSpace=wrap;html=1;fillColor=#FFE6CC;strokeColor=#D79B00;fontFamily=Inter;fontSize=12;" vertex="1" parent="firebase-box">
          <mxGeometry x="20" y="50" width="120" height="70" as="geometry" />
        </mxCell>
        <mxCell id="firestore" value="&lt;b&gt;Firestore DB&lt;/b&gt;&lt;br&gt;&lt;div style=&quot;font-size: 11px;&quot;&gt;Profiles, Plans, Classrooms, Posts&lt;/div&gt;" style="rounded=1;whiteSpace=wrap;html=1;fillColor=#FFE6CC;strokeColor=#D79B00;fontFamily=Inter;fontSize=12;" vertex="1" parent="firebase-box">
          <mxGeometry x="160" y="50" width="120" height="70" as="geometry" />
        </mxCell>
        <mxCell id="storage" value="&lt;b&gt;Cloud Storage&lt;/b&gt;&lt;br&gt;&lt;div style=&quot;font-size: 11px;&quot;&gt;Image Uploads (Textbooks)&lt;/div&gt;" style="rounded=1;whiteSpace=wrap;html=1;fillColor=#FFE6CC;strokeColor=#D79B00;fontFamily=Inter;fontSize=12;" vertex="1" parent="firebase-box">
          <mxGeometry x="300" y="50" width="120" height="70" as="geometry" />
        </mxCell>
        <mxCell id="firestore-rules" value="Security Rules" style="rounded=1;whiteSpace=wrap;html=1;fillColor=#FFCDD2;strokeColor=#C63238;fontFamily=Inter;fontSize=11;fontStyle=0;dashed=1;" vertex="1" parent="firebase-box">
          <mxGeometry x="20" y="140" width="400" height="40" as="geometry" />
        </mxCell>
        <mxCell id="ai-box" value="AI Services Layer" style="rounded=1;whiteSpace=wrap;html=1;fillColor=#d5e8d4;strokeColor=#82b366;fontFamily=Inter;fontSize=14;fontStyle=1;verticalAlign=top;spacingTop=10;" vertex="1" parent="backend-box">
          <mxGeometry x="20" y="270" width="440" height="270" as="geometry" />
        </mxCell>
        <mxCell id="genkit-flows" value="&lt;b&gt;Genkit Flows&lt;/b&gt;&lt;br&gt;&lt;div style=&quot;text-align: left; font-size: 11px; margin-top: 5px;&quot;&gt;- Lesson Planning&lt;br&gt;- Worksheet Generation&lt;br&gt;- Visual Aid Creation&lt;br&gt;- Knowledge Base Queries&lt;br&gt;- Local Content Generation&lt;/div&gt;" style="rounded=1;whiteSpace=wrap;html=1;fillColor=#e3f0e2;strokeColor=#5a8444;fontFamily=Inter;fontSize=12;" vertex="1" parent="ai-box">
          <mxGeometry x="20" y="50" width="180" height="200" as="geometry" />
        </mxCell>
        <mxCell id="gemini-models" value="&lt;b&gt;Google Gemini Models&lt;/b&gt;" style="rounded=1;whiteSpace=wrap;html=1;fillColor=#e3f0e2;strokeColor=#5a8444;fontFamily=Inter;fontSize=12;" vertex="1" parent="ai-box">
          <mxGeometry x="240" y="50" width="180" height="60" as="geometry" />
        </mxCell>
        <mxCell id="gemini-text" value="Text &amp;amp; Function Calling&lt;br&gt;&lt;i&gt;(Gemini 2.0 Flash)&lt;/i&gt;" style="rounded=1;whiteSpace=wrap;html=1;fillColor=#F8CECC;strokeColor=#B85450;fontFamily=Inter;fontSize=11;" vertex="1" parent="ai-box">
          <mxGeometry x="240" y="120" width="180" height="40" as="geometry" />
        </mxCell>
        <mxCell id="gemini-vision" value="Multimodal / Vision&lt;br&gt;&lt;i&gt;(Gemini 2.0 Flash)&lt;/i&gt;" style="rounded=1;whiteSpace=wrap;html=1;fillColor=#F8CECC;strokeColor=#B85450;fontFamily=Inter;fontSize=11;" vertex="1" parent="ai-box">
          <mxGeometry x="240" y="170" width="180" height="40" as="geometry" />
        </mxCell>
         <mxCell id="gemini-image" value="Image Generation&lt;br&gt;&lt;i&gt;(Gemini 2.0 Flash)&lt;/i&gt;" style="rounded=1;whiteSpace=wrap;html=1;fillColor=#F8CECC;strokeColor=#B85450;fontFamily=Inter;fontSize=11;" vertex="1" parent="ai-box">
          <mxGeometry x="240" y="220" width="180" height="40" as="geometry" />
        </mxCell>
        <mxCell id="edge1" style="edgeStyle=orthogonalEdgeStyle;rounded=0;orthogonalLoop=1;jettySize=auto;html=1;entryX=0;entryY=0.5;fontFamily=Inter;" edge="1" parent="1" source="user" target="frontend-box">
          <mxGeometry relative="1" as="geometry" />
        </mxCell>
        <mxCell id="edge2" style="edgeStyle=orthogonalEdgeStyle;rounded=0;orthogonalLoop=1;jettySize=auto;html=1;entryX=0;entryY=0.25;fontFamily=Inter;" edge="1" parent="1" source="frontend-box" target="firebase-box">
          <mxGeometry relative="1" as="geometry">
            <mxPoint x="480" y="380" as="sourcePoint" />
          </mxGeometry>
        </mxCell>
        <mxCell id="edge2-label" value="Auth, DB, Storage API Calls&lt;br&gt;(Firebase SDK)" style="text;html=1;align=center;verticalAlign=middle;resizable=0;points=[];autosize=1;strokeColor=none;fillColor=none;fontFamily=Inter;fontSize=11;" vertex="1" connectable="0" parent="edge2">
          <mxGeometry x="-0.3" y="1" relative="1" as="geometry" />
        </mxCell>
        <mxCell id="edge3" style="edgeStyle=orthogonalEdgeStyle;rounded=0;orthogonalLoop=1;jettySize=auto;html=1;entryX=0;entryY=0.75;fontFamily=Inter;" edge="1" parent="1" source="frontend-box" target="ai-box">
          <mxGeometry relative="1" as="geometry" />
        </mxCell>
        <mxCell id="edge3-label" value="Server Actions (Secure)&lt;br&gt;Invoke Genkit Flows" style="text;html=1;align=center;verticalAlign=middle;resizable=0;points=[];autosize=1;strokeColor=none;fillColor=none;fontFamily=Inter;fontSize=11;" vertex="1" connectable="0" parent="edge3">
          <mxGeometry x="-0.4" relative="1" as="geometry" />
        </mxCell>
        <mxCell id="edge4" style="edgeStyle=orthogonalEdgeStyle;rounded=0;orthogonalLoop=1;jettySize=auto;html=1;entryX=0.5;entryY=0;fontFamily=Inter;exitX=0.5;exitY=1;" edge="1" parent="1" source="ai-box" target="firebase-box">
          <mxGeometry relative="1" as="geometry">
            <Array as="points">
              <mxPoint x="760" y="560" />
              <mxPoint x="760" y="270" />
            </Array>
          </mxGeometry>
        </mxCell>
        <mxCell id="edge4-label" value="Read/Write Data&lt;br&gt;(e.g., save lesson plan)" style="text;html=1;align=center;verticalAlign=middle;resizable=0;points=[];autosize=1;strokeColor=none;fillColor=none;fontFamily=Inter;fontSize=11;" vertex="1" connectable="0" parent="edge4">
          <mxGeometry x="-0.35" relative="1" as="geometry">
            <mxPoint as="offset" />
          </mxGeometry>
        </mxCell>
        <mxCell id="edge5" style="edgeStyle=orthogonalEdgeStyle;rounded=0;orthogonalLoop=1;jettySize=auto;html=1;entryX=0;entryY=0.5;fontFamily=Inter;" edge="1" parent="1" source="genkit-flows" target="gemini-models">
          <mxGeometry relative="1" as="geometry" />
        </mxCell>
        <mxCell id="edge5-label" value="Calls via Google AI SDK" style="text;html=1;align=center;verticalAlign=middle;resizable=0;points=[];autosize=1;strokeColor=none;fillColor=none;fontFamily=Inter;fontSize=11;" vertex="1" connectable="0" parent="edge5">
          <mxGeometry x="-0.5" y="1" relative="1" as="geometry" />
        </mxCell>
      </root>
    </mxGraphModel>
  </diagram>
</mxfile>